<svg xmlns="http://www.w3.org/2000/svg" viewBox="0 0 642.48 209.81"><defs><style>.cls-1{font-size:180px;font-family:CenturyGothic, Century Gothic;}.cls-1,.cls-2{fill:#fff;}.cls-2,.cls-3,.cls-4{stroke:#1d1d1b;stroke-miterlimit:10;}.cls-2,.cls-4{stroke-width:0.5px;}.cls-3{fill:#ededed;}.cls-3,.cls-4{stroke-linecap:round;}.cls-4{fill:#fd7742;}</style></defs><title>Logga</title><g id="Lager_1" data-name="Lager 1"><text class="cls-1" transform="translate(0 154.62)"><tspan xml:space="preserve">BL      G</tspan></text></g><g id="Lager_2" data-name="Lager 2"><path class="cls-2" d="M233.8,148.4a62.24,62.24,0,0,0,21,6c28.56,3.28,45.06-13.78,45.05-13.8-.1-.24-14.52,5.16-33.05,3.3,0,0-.05,0-.05,0,0-.17,35.82-3.1,50.18-30.53a61.79,61.79,0,0,0,6-21c3.28-28.56-13.5-45-13.5-45a.76.76,0,0,0-.3-.05c-.24.1,5.16,14.52,3.3,33.05,0,0,0,.05,0,.05-.17,0-2.34-40.12-34.39-55.75a62.41,62.41,0,0,0-21-6C228.46,15.38,212.22,31.8,212.12,32a1.05,1.05,0,0,0-.1.21.76.76,0,0,0-.05.3c.1.24,14.52-5.16,33.05-3.3,0,0,.05,0,.05,0,0,.17-38.5,2.11-50.18,30.53a74.15,74.15,0,0,0-6,21c-3.28,28.56,16.15,51.08,16.18,51.07.24-.1-6-18-5.68-39.07,0,0,0-.05,0-.05C199.58,92.64,203.57,133.28,233.8,148.4Z"/><path class="cls-3" d="M300.45,128.58"/><path class="cls-4" d="M296.25,64.48a41.39,41.39,0,0,0-7.56-12.4c-12.48-14.48-28.24-13.59-28.24-13.57A59.74,59.74,0,0,1,278.09,51.8s0,0,0,0-18.91-14.64-38.29-7.7a41.09,41.09,0,0,0-12.4,7.56c-14.48,12.48-13.69,28.08-13.69,28.08a.5.5,0,0,0,.12.16,59.74,59.74,0,0,1,13.29-17.64l0,0c.09.07-16.95,20.67-8.33,42.76a41.5,41.5,0,0,0,7.56,12.4c12.48,14.48,27.82,13.77,27.94,13.75a.7.7,0,0,0,.14-.05.5.5,0,0,0,.16-.12A59.74,59.74,0,0,1,237,117.7s0,0,0,0,19.77,16.33,38.29,7.7a49.31,49.31,0,0,0,12.4-7.56c14.48-12.48,15.09-32.14,15.12-32.26A89.29,89.29,0,0,1,288,107.21l0,0C287.83,107.16,304.21,85.5,296.25,64.48Z"/><path class="cls-3" d="M287.46,115.6"/></g><g id="Lager_3" data-name="Lager 3"><path class="cls-2" d="M387.8,148.4a62.24,62.24,0,0,0,21,6c28.56,3.28,45.06-13.78,45.05-13.8-.1-.24-14.52,5.16-33.05,3.3,0,0-.05,0-.05,0,0-.17,35.82-3.1,50.18-30.53a61.79,61.79,0,0,0,6-21c3.28-28.56-13.5-45-13.5-45a.76.76,0,0,0-.3-.05c-.24.1,5.16,14.52,3.3,33.05,0,0,0,.05,0,.05-.17,0-2.34-40.12-34.39-55.75a62.41,62.41,0,0,0-21-6C382.46,15.38,366.22,31.8,366.12,32a1.05,1.05,0,0,0-.1.21.76.76,0,0,0-.05.3c.1.24,14.52-5.16,33.05-3.3,0,0,.05,0,.05,0,0,.17-38.5,2.11-50.18,30.53a74.15,74.15,0,0,0-6,21c-3.28,28.56,16.15,51.08,16.18,51.07.24-.1-6-18-5.68-39.07,0,0,0-.05,0-.05C353.58,92.64,357.57,133.28,387.8,148.4Z"/><path class="cls-3" d="M454.45,128.58"/><path class="cls-4" d="M450.25,64.48a41.39,41.39,0,0,0-7.56-12.4c-12.48-14.48-28.24-13.59-28.24-13.57A59.74,59.74,0,0,1,432.09,51.8s0,0,0,0-18.91-14.64-38.29-7.7a41.09,41.09,0,0,0-12.4,7.56c-14.48,12.48-13.69,28.08-13.69,28.08a.5.5,0,0,0,.12.16,59.74,59.74,0,0,1,13.29-17.64l0,0c.09.07-16.95,20.67-8.33,42.76a41.5,41.5,0,0,0,7.56,12.4c12.48,14.48,27.82,13.77,27.94,13.75a.7.7,0,0,0,.14-.05.5.5,0,0,0,.16-.12A59.74,59.74,0,0,1,391,117.7s0,0,0,0,19.77,16.33,38.29,7.7a49.31,49.31,0,0,0,12.4-7.56c14.48-12.48,15.09-32.14,15.12-32.26A89.29,89.29,0,0,1,442,107.21l0,0C441.83,107.16,458.21,85.5,450.25,64.48Z"/><path class="cls-3" d="M441.46,115.6"/></g></svg>